<svg height="512" viewBox="0 0 512 512" width="512" xmlns="http://www.w3.org/2000/svg"><g id="filled_outline" data-name="filled outline"><path d="m104 144h16v112h-16z" fill="#fbb540"/><path d="m408 144h16v112h-16z" fill="#fbb540"/><path d="m256 280a160.063 160.063 0 0 0 -152.653 208h305.306a160.063 160.063 0 0 0 -152.653-208z" fill="#aae5c8"/><path d="m256 272c-92.633 0-168 75.367-168 168a168.092 168.092 0 0 0 7.711 50.4 8 8 0 0 0 7.633 5.6h305.312a8 8 0 0 0 7.633-5.6 168.092 168.092 0 0 0 7.711-50.4c0-92.633-75.367-168-168-168zm-44.6 164.6a435.241 435.241 0 0 0 44.6 2.358q20.009 0 39.978-1.872c.053 14.286-.468 28.6-1.405 42.911h-81.859c-.928-14.469-1.399-28.94-1.314-43.397zm.333-16.072q.8-24.9 3.57-49.664a164.858 164.858 0 0 0 76.882 1.14q2.688 24.453 3.42 49.069a419.266 419.266 0 0 1 -83.871-.542zm-12.04-54.351c-2.049 17.409-3.319 34.895-3.918 52.418a423.882 423.882 0 0 1 -85.435-21.785 151.913 151.913 0 0 1 35.945-61.726 166.209 166.209 0 0 0 53.409 31.096zm-41.777-42.106a151.738 151.738 0 0 1 54.445-29.618c-4.339 18.376-7.765 36.9-10.445 55.52a150.484 150.484 0 0 1 -43.999-25.899zm149.9 43.732a166.269 166.269 0 0 0 57.9-32.72 151.913 151.913 0 0 1 35.944 61.727 423.58 423.58 0 0 1 -90.1 22.371q-.823-25.77-3.746-51.375zm-2.016-16.275q-4.118-29.352-11.043-58.33a151.613 151.613 0 0 1 59.327 30.878 150.41 150.41 0 0 1 -48.284 27.452zm-28.337-61.828a619.367 619.367 0 0 1 12.842 66.3 148.782 148.782 0 0 1 -72.922-1.092c2.712-19.435 6.239-38.777 10.8-57.947l1.553-6.523a140.135 140.135 0 0 1 47.723-.734zm-173.463 150.3a151.862 151.862 0 0 1 2.621-27.5 439.994 439.994 0 0 0 88.82 22.2q-.2 22.633 1.251 45.306h-87.356a152 152 0 0 1 -5.336-40.006zm298.664 40h-92.064c.953-14.933 1.5-29.86 1.4-44.76a439.694 439.694 0 0 0 93.379-22.74 149.692 149.692 0 0 1 -2.715 67.5z" fill="#8dc79d"/><circle cx="112" cy="272" fill="#fbb540" r="24"/><path d="m184 118.631-135.994 1.369-24.431-47.782 16-.288 24.142 15.927 103.995-1.081a16 16 0 0 1 16.144 15.856z" fill="#dbdbdb"/><path d="m103.715 87.353 31.999-.288-32.431-47.71-31.999.288z" fill="#4799cf"/><path d="m488 118.631-135.994 1.369-24.431-47.782 16-.288 24.143 15.927 104-1.081a16 16 0 0 1 16.144 15.856z" fill="#dbdbdb"/><path d="m407.715 87.353 31.999-.288-32.431-47.71-31.999.288z" fill="#4799cf"/><g fill="#fbb540"><path d="m208 96h16v16h-16z"/><path d="m240 96h16v16h-16z"/><path d="m272 96h16v16h-16z"/><path d="m304 96h16v16h-16z"/><circle cx="416" cy="272" r="24"/></g><path d="m48.008 128h.078l135.992-1.367a8 8 0 0 0 7.922-8.071l-.141-16.007a24.045 24.045 0 0 0 -24.015-23.782h-.219l-27.675.29-30.05-44.211a8.011 8.011 0 0 0 -6.617-3.5h-.07l-32 .289a8 8 0 0 0 -6.547 12.5l24.105 35.459-22.693.237-22.101-14.587a8.032 8.032 0 0 0 -4.555-1.32l-15.992.289a8 8 0 0 0 -6.977 11.64l24.43 47.782a8 8 0 0 0 7.125 4.359zm38.3-80.492 12.765-.117 21.625 31.8-12.765.117zm-49.074 32.469 22.078 14.562a7.7 7.7 0 0 0 4.493 1.32l103.976-1.086c4.406-.429 8.031 3.524 8.078 7.93l.071 8.008-123.055 1.242-16.344-31.969z"/><path d="m471.844 78.773h-.219l-27.675.29-30.05-44.211a8.011 8.011 0 0 0 -6.617-3.5h-.07l-32 .289a8 8 0 0 0 -6.547 12.5l24.105 35.459-22.693.237-22.1-14.586a7.958 7.958 0 0 0 -4.555-1.32l-15.992.289a8 8 0 0 0 -6.977 11.64l24.43 47.782a8 8 0 0 0 7.124 4.358h.078l135.992-1.367a8 8 0 0 0 7.922-8.071l-.141-16.007a24.045 24.045 0 0 0 -24.015-23.782zm-81.539-31.265 12.765-.117 21.625 31.8-12.765.117zm-33.43 64.445-16.344-31.969.7-.007 22.078 14.562a7.72 7.72 0 0 0 4.493 1.32l103.976-1.086c4.438-.429 8.039 3.524 8.078 7.93l.071 8.008z"/><path d="m208 96h16v16h-16z"/><path d="m240 96h16v16h-16z"/><path d="m272 96h16v16h-16z"/><path d="m304 96h16v16h-16z"/><path d="m104 144v97.136a32 32 0 1 0 16 0v-97.136zm24 128a16 16 0 1 1 -16-16 16.021 16.021 0 0 1 16 16z"/><path d="m408 144v97.136a32 32 0 1 0 16 0v-97.136zm24 128a16 16 0 1 1 -16-16 16.021 16.021 0 0 1 16 16z"/><path d="m256 272c-92.633 0-168 75.367-168 168a168.092 168.092 0 0 0 7.711 50.4 8 8 0 0 0 7.633 5.6h305.312a8 8 0 0 0 7.633-5.6 168.092 168.092 0 0 0 7.711-50.4c0-92.633-75.367-168-168-168zm-27.813 24.953 1.553-6.523a140.135 140.135 0 0 1 47.723-.734 619.367 619.367 0 0 1 12.842 66.3 148.782 148.782 0 0 1 -72.922-1.092c2.717-19.439 6.239-38.781 10.804-57.951zm27.813 79.047a169.463 169.463 0 0 0 36.186-3.993q2.688 24.453 3.42 49.069a419.266 419.266 0 0 1 -83.872-.545q.8-24.9 3.57-49.664a168.994 168.994 0 0 0 40.696 5.133zm-146.664 104a149.692 149.692 0 0 1 -2.715-67.5 439.994 439.994 0 0 0 88.82 22.2q-.2 22.633 1.251 45.306zm86.44-61.4a423.882 423.882 0 0 1 -85.436-21.79 151.913 151.913 0 0 1 35.945-61.726 166.209 166.209 0 0 0 53.409 31.1c-2.049 17.405-3.319 34.891-3.918 52.416zm-37.859-94.524a151.738 151.738 0 0 1 54.445-29.618c-4.339 18.376-7.765 36.9-10.445 55.52a150.484 150.484 0 0 1 -44-25.904zm136.656 155.924h-81.859c-.928-14.472-1.4-28.943-1.313-43.4a435.241 435.241 0 0 0 44.6 2.358q20.009 0 39.978-1.872c.052 14.289-.469 28.599-1.406 42.914zm.186-186.8a151.613 151.613 0 0 1 59.327 30.878 150.41 150.41 0 0 1 -48.286 27.45q-4.115-29.352-11.041-58.328zm113.241 146.8a152 152 0 0 1 -5.336 40h-92.064c.953-14.933 1.5-29.86 1.4-44.76a439.694 439.694 0 0 0 93.379-22.74 151.862 151.862 0 0 1 2.621 27.5zm-96.44-20.819q-.823-25.77-3.746-51.375a166.269 166.269 0 0 0 57.9-32.72 151.913 151.913 0 0 1 35.946 61.724 423.58 423.58 0 0 1 -90.1 22.371z"/></g></svg>